<mxfile host="app.diagrams.net" modified="2023-07-28T11:05:59.847Z" agent="Mozilla/5.0 (Windows NT 10.0; Win64; x64; rv:109.0) Gecko/20100101 Firefox/115.0" version="21.6.5" etag="7NRClULvk_i1DZbEt2w5" type="github">
  <diagram name="Page-1" id="xaJDZCdVc0x0wSUuN2eZ">
    <mxGraphModel>
      <root>
        <mxCell id="0" />
        <mxCell id="1" parent="0" />
      </root>
    </mxGraphModel>
  </diagram>
</mxfile>
